<?xml version="1.0" encoding="utf-8"?>
<svg version="1.1" xmlns:xlink="http://www.w3.org/1999/xlink" width="12px" height="12px" xmlns="http://www.w3.org/2000/svg">
  <g transform="matrix(1 0 0 1 -8 -7 )">
    <path d="M 4.28693181818182 4.5703125  C 4.33806818181818 4.6171875  4.36363636363636 4.67708333333333  4.36363636363636 4.75  L 4.36363636363636 9.25  C 4.36363636363636 9.32291666666667  4.33806818181818 9.3828125  4.28693181818182 9.4296875  C 4.23579545454545 9.4765625  4.17045454545455 9.5  4.09090909090909 9.5  L 3.54545454545455 9.5  C 3.46590909090909 9.5  3.40056818181818 9.4765625  3.34943181818182 9.4296875  C 3.29829545454545 9.3828125  3.27272727272727 9.32291666666667  3.27272727272727 9.25  L 3.27272727272727 4.75  C 3.27272727272727 4.67708333333333  3.29829545454545 4.6171875  3.34943181818182 4.5703125  C 3.40056818181818 4.5234375  3.46590909090909 4.5  3.54545454545455 4.5  L 4.09090909090909 4.5  C 4.17045454545455 4.5  4.23579545454545 4.5234375  4.28693181818182 4.5703125  Z M 6.46875 4.5703125  C 6.51988636363636 4.6171875  6.54545454545455 4.67708333333333  6.54545454545455 4.75  L 6.54545454545455 9.25  C 6.54545454545455 9.32291666666667  6.51988636363636 9.3828125  6.46875 9.4296875  C 6.41761363636364 9.4765625  6.35227272727273 9.5  6.27272727272727 9.5  L 5.72727272727273 9.5  C 5.64772727272727 9.5  5.58238636363636 9.4765625  5.53125 9.4296875  C 5.48011363636364 9.3828125  5.45454545454545 9.32291666666667  5.45454545454545 9.25  L 5.45454545454545 4.75  C 5.45454545454545 4.67708333333333  5.48011363636364 4.6171875  5.53125 4.5703125  C 5.58238636363636 4.5234375  5.64772727272727 4.5  5.72727272727273 4.5  L 6.27272727272727 4.5  C 6.35227272727273 4.5  6.41761363636364 4.5234375  6.46875 4.5703125  Z M 8.65056818181818 4.5703125  C 8.70170454545455 4.6171875  8.72727272727273 4.67708333333333  8.72727272727273 4.75  L 8.72727272727273 9.25  C 8.72727272727273 9.32291666666667  8.70170454545455 9.3828125  8.65056818181818 9.4296875  C 8.59943181818182 9.4765625  8.53409090909091 9.5  8.45454545454546 9.5  L 7.90909090909091 9.5  C 7.82954545454546 9.5  7.76420454545455 9.4765625  7.71306818181818 9.4296875  C 7.66193181818182 9.3828125  7.63636363636364 9.32291666666667  7.63636363636364 9.25  L 7.63636363636364 4.75  C 7.63636363636364 4.67708333333333  7.66193181818182 4.6171875  7.71306818181818 4.5703125  C 7.76420454545455 4.5234375  7.82954545454546 4.5  7.90909090909091 4.5  L 8.45454545454546 4.5  C 8.53409090909091 4.5  8.59943181818182 4.5234375  8.65056818181818 4.5703125  Z M 9.75852272727273 10.72265625  C 9.79829545454546 10.6263020833333  9.81818181818182 10.5208333333333  9.81818181818182 10.40625  L 9.81818181818182 3  L 2.18181818181818 3  L 2.18181818181818 10.40625  C 2.18181818181818 10.5208333333333  2.20170454545455 10.6263020833333  2.24147727272727 10.72265625  C 2.28125 10.8190104166667  2.32244318181818 10.8893229166667  2.36505681818182 10.93359375  C 2.40767045454545 10.9778645833333  2.4375 11  2.45454545454545 11  L 9.54545454545455 11  C 9.5625 11  9.59232954545455 10.9778645833333  9.63494318181818 10.93359375  C 9.67755681818182 10.8893229166667  9.71875 10.8190104166667  9.75852272727273 10.72265625  Z M 4.50852272727273 1.0859375  L 4.09090909090909 2  L 7.90909090909091 2  L 7.5 1.0859375  C 7.46022727272727 1.0390625  7.41193181818182 1.01041666666667  7.35511363636364 1  L 4.65340909090909 1  C 4.59659090909091 1.01041666666667  4.54829545454546 1.0390625  4.50852272727273 1.0859375  Z M 11.9232954545455 2.0703125  C 11.9744318181818 2.1171875  12 2.17708333333333  12 2.25  L 12 2.75  C 12 2.82291666666667  11.9744318181818 2.8828125  11.9232954545455 2.9296875  C 11.8721590909091 2.9765625  11.8068181818182 3  11.7272727272727 3  L 10.9090909090909 3  L 10.9090909090909 10.40625  C 10.9090909090909 10.8385416666667  10.7755681818182 11.2122395833333  10.5085227272727 11.52734375  C 10.2414772727273 11.8424479166667  9.92045454545455 12  9.54545454545455 12  L 2.45454545454545 12  C 2.07954545454545 12  1.75852272727273 11.84765625  1.49147727272727 11.54296875  C 1.22443181818182 11.23828125  1.09090909090909 10.8697916666667  1.09090909090909 10.4375  L 1.09090909090909 3  L 0.272727272727273 3  C 0.193181818181818 3  0.127840909090909 2.9765625  0.0767045454545455 2.9296875  C 0.0255681818181818 2.8828125  0 2.82291666666667  0 2.75  L 0 2.25  C 0 2.17708333333333  0.0255681818181818 2.1171875  0.0767045454545455 2.0703125  C 0.127840909090909 2.0234375  0.193181818181818 2  0.272727272727273 2  L 2.90625 2  L 3.50284090909091 0.6953125  C 3.58806818181818 0.502604166666666  3.74147727272727 0.338541666666666  3.96306818181818 0.203125  C 4.18465909090909 0.0677083333333326  4.40909090909091 0  4.63636363636364 0  L 7.36363636363636 0  C 7.59090909090909 0  7.81534090909091 0.0677083333333326  8.03693181818182 0.203125  C 8.25852272727273 0.338541666666666  8.41193181818182 0.502604166666666  8.49715909090909 0.6953125  L 9.09375 2  L 11.7272727272727 2  C 11.8068181818182 2  11.8721590909091 2.0234375  11.9232954545455 2.0703125  Z " fill-rule="nonzero" fill="#000000" stroke="none" transform="matrix(1 0 0 1 8 7 )" />
  </g>
</svg>