<?xml version="1.0" encoding="utf-8"?>
<svg version="1.1" xmlns:xlink="http://www.w3.org/1999/xlink" width="12px" height="12px" xmlns="http://www.w3.org/2000/svg">
  <g transform="matrix(1 0 0 1 -8 -8 )">
    <path d="M 5.59641255605381 9  L 5.97309417040359 9  L 6.75336322869955 8.01136363636364  L 5.73094170403587 6.71590909090909  L 4.95067264573991 7.70454545454546  L 4.95067264573991 8.18181818181818  L 5.59641255605381 8.18181818181818  L 5.59641255605381 9  Z M 8.92600896860987 3.14488636363636  C 9.00224215246637 3.04829545454545  9.00448430493273 2.95454545454545  8.93273542600897 2.86363636363636  C 8.8609865470852 2.77272727272727  8.78699551569507 2.77556818181818  8.71076233183856 2.87215909090909  L 6.35650224215247 5.85511363636364  C 6.28026905829596 5.95170454545455  6.2780269058296 6.04545454545454  6.34977578475336 6.13636363636364  C 6.42152466367713 6.22727272727273  6.49551569506727 6.22443181818182  6.57174887892377 6.12784090909091  L 8.92600896860987 3.14488636363636  Z M 9.33632286995516 7.67897727272727  C 9.42600896860987 7.72443181818182  9.47085201793722 7.80681818181818  9.47085201793722 7.92613636363636  L 9.47085201793722 9.54545454545455  C 9.47085201793722 10.2215909090909  9.28139013452915 10.7997159090909  8.902466367713 11.2798295454545  C 8.52354260089686 11.7599431818182  8.06726457399103 12  7.53363228699552 12  L 1.9372197309417 12  C 1.40358744394619 12  0.947309417040359 11.7599431818182  0.568385650224215 11.2798295454545  C 0.189461883408072 10.7997159090909  0 10.2215909090909  0 9.54545454545455  L 0 2.45454545454546  C 0 1.77840909090909  0.189461883408072 1.20028409090909  0.568385650224215 0.720170454545455  C 0.947309417040359 0.240056818181817  1.40358744394619 0  1.9372197309417 0  L 7.53363228699552 0  C 7.81614349775785 0  8.07847533632287 0.0710227272727266  8.32062780269058 0.213068181818181  C 8.38789237668161 0.252840909090908  8.42825112107623 0.318181818181818  8.44170403587444 0.409090909090909  C 8.45515695067265 0.505681818181818  8.43497757847534 0.588068181818181  8.38116591928251 0.65625  L 8.05156950672646 1.07386363636364  C 7.98878923766816 1.15340909090909  7.9170403587444 1.17613636363636  7.83632286995516 1.14204545454546  C 7.73318385650224 1.10795454545454  7.6322869955157 1.09090909090909  7.53363228699552 1.09090909090909  L 1.9372197309417 1.09090909090909  C 1.64125560538117 1.09090909090909  1.38789237668161 1.22443181818182  1.17713004484305 1.49147727272727  C 0.966367713004485 1.75852272727273  0.860986547085202 2.07954545454546  0.860986547085202 2.45454545454546  L 0.860986547085202 9.54545454545455  C 0.860986547085202 9.92045454545455  0.966367713004485 10.2414772727273  1.17713004484305 10.5085227272727  C 1.38789237668161 10.7755681818182  1.64125560538117 10.9090909090909  1.9372197309417 10.9090909090909  L 7.53363228699552 10.9090909090909  C 7.82959641255605 10.9090909090909  8.08295964125561 10.7755681818182  8.29372197309417 10.5085227272727  C 8.50448430493274 10.2414772727273  8.60986547085202 9.92045454545455  8.60986547085202 9.54545454545455  L 8.60986547085202 8.47159090909091  C 8.60986547085202 8.39772727272727  8.63004484304933 8.33522727272727  8.67040358744395 8.28409090909091  L 9.10089686098655 7.73863636363636  C 9.16816143497758 7.65340909090909  9.24663677130045 7.63352272727273  9.33632286995516 7.67897727272727  Z M 4.30493273542601 7.36363636363636  L 8.82511210762332 1.63636363636364  L 10.762331838565 4.09090909090909  L 6.24215246636771 9.81818181818182  L 4.30493273542601 9.81818181818182  L 4.30493273542601 7.36363636363636  Z M 12 2.18181818181818  C 12 2.40909090909091  11.9372197309417 2.60227272727273  11.8116591928251 2.76136363636364  L 11.1928251121076 3.54545454545455  L 9.25560538116592 1.09090909090909  L 9.87443946188341 0.306818181818181  C 10 0.147727272727272  10.152466367713 0.0681818181818188  10.3318385650224 0.0681818181818188  C 10.5112107623318 0.0681818181818188  10.6636771300448 0.147727272727272  10.7892376681614 0.306818181818181  L 11.8116591928251 1.60227272727273  C 11.9372197309417 1.76136363636363  12 1.95454545454545  12 2.18181818181818  Z " fill-rule="nonzero" fill="#000000" stroke="none" transform="matrix(1 0 0 1 8 8 )" />
  </g>
</svg>